<?xml version="1.0" encoding="UTF-8" standalone="no"?><!DOCTYPE svg PUBLIC "-//W3C//DTD SVG 1.1//EN" "http://www.w3.org/Graphics/SVG/1.1/DTD/svg11.dtd"><svg width="100%" height="100%" viewBox="0 0 1280 200" version="1.1" xmlns="http://www.w3.org/2000/svg" xmlns:xlink="http://www.w3.org/1999/xlink" xml:space="preserve" xmlns:serif="http://www.serif.com/" style="fill-rule:evenodd;clip-rule:evenodd;stroke-linejoin:round;stroke-miterlimit:2;"><path d="M21.973,29.227l44.8,0c7.396,0 14.329,0.889 20.8,2.666c6.471,1.778 12.107,4.391 16.907,7.84c4.8,3.449 8.569,7.68 11.307,12.694c2.737,5.013 4.106,10.755 4.106,17.226c0,6.4 -1.333,11.983 -4,16.747c-2.666,4.764 -6.186,8.711 -10.56,11.84c-4.373,3.129 -9.333,5.458 -14.88,6.987c-5.546,1.529 -11.2,2.293 -16.96,2.293c-2.489,0 -5.084,-0.053 -7.786,-0.16c-2.703,-0.107 -5.298,-0.267 -7.787,-0.48c-2.489,-0.213 -4.8,-0.462 -6.933,-0.747c-2.134,-0.284 -3.876,-0.569 -5.227,-0.853l0,65.387l-23.787,0l0,-141.44Zm23.787,68.053c2.702,0.924 5.582,1.689 8.64,2.293c3.058,0.605 6.187,0.907 9.387,0.907c5.12,0 9.6,-0.764 13.44,-2.293c3.84,-1.529 7.04,-3.627 9.6,-6.294c2.56,-2.666 4.462,-5.795 5.706,-9.386c1.245,-3.591 1.867,-7.414 1.867,-11.467c0,-4.764 -0.818,-9.067 -2.453,-12.907c-1.636,-3.84 -3.894,-7.129 -6.774,-9.866c-2.88,-2.738 -6.257,-4.854 -10.133,-6.347c-3.876,-1.493 -8.018,-2.24 -12.427,-2.24l-16.853,0l0,57.6Z" style="fill-rule:nonzero;"/><path d="M246.613,29.227l0,9.173l-74.56,0l0,50.56l49.92,0l0,9.173l-49.92,0l0,63.36l74.56,0l0,9.174l-98.346,0l0,-141.44l98.346,0Z" style="fill-rule:nonzero;"/><path d="M329.92,26.027l66.56,144.64l-24.213,0l-21.547,-47.147l-60.693,0l-22.294,47.147l-11.946,0l68.16,-144.64l5.973,0Zm-35.733,88.32l52.16,0l-25.707,-56l-26.453,56Z" style="fill-rule:nonzero;"/><path d="M512.427,29.227l0,9.173l-51.2,0l0,132.267l-23.787,0l0,-132.267l-51.2,0l0,-9.173l126.187,0Z" style="fill-rule:nonzero;"/><path d="M541.013,29.227l49.067,71.68l48.853,-71.68l12.907,0l-54.827,80.32l0,61.12l-23.786,0l0,-58.88l-56.534,-82.56l24.32,0Z" style="fill-rule:nonzero;"/><path d="M716.373,29.227l49.067,0c8.462,0 15.893,0.906 22.293,2.72c6.4,1.813 11.734,4.355 16,7.626c4.267,3.271 7.485,7.165 9.654,11.68c2.169,4.516 3.253,9.44 3.253,14.774c0,4.409 -0.836,8.533 -2.507,12.373c-1.671,3.84 -4.017,7.307 -7.04,10.4c-3.022,3.093 -6.666,5.76 -10.933,8c-4.267,2.24 -8.96,4 -14.08,5.28l51.52,68.587l-27.627,0l-49.173,-66.454l-16.64,0l0,66.454l-23.787,0l0,-141.44Zm23.787,67.84l13.76,0c5.333,0 10.258,-0.711 14.773,-2.134c4.516,-1.422 8.427,-3.431 11.734,-6.026c3.306,-2.596 5.884,-5.743 7.733,-9.44c1.849,-3.698 2.773,-7.858 2.773,-12.48c0,-4.267 -0.729,-8.178 -2.186,-11.734c-1.458,-3.555 -3.52,-6.595 -6.187,-9.12c-2.667,-2.524 -5.831,-4.497 -9.493,-5.92c-3.663,-1.422 -7.663,-2.133 -12,-2.133l-20.907,0l0,58.987Z" style="fill-rule:nonzero;"/><path d="M918.72,173.973c-10.951,0 -21.173,-1.955 -30.667,-5.866c-9.493,-3.911 -17.742,-9.263 -24.746,-16.054c-7.005,-6.791 -12.516,-14.72 -16.534,-23.786c-4.017,-9.067 -6.026,-18.756 -6.026,-29.067c0,-6.756 0.906,-13.262 2.72,-19.52c1.813,-6.258 4.391,-12.089 7.733,-17.493c3.342,-5.405 7.378,-10.329 12.107,-14.774c4.729,-4.444 9.973,-8.249 15.733,-11.413c5.76,-3.164 12,-5.618 18.72,-7.36c6.72,-1.742 13.707,-2.613 20.96,-2.613c7.324,0 14.329,0.871 21.013,2.613c6.685,1.742 12.925,4.196 18.72,7.36c5.796,3.164 11.04,6.969 15.734,11.413c4.693,4.445 8.729,9.369 12.106,14.774c3.378,5.404 5.974,11.235 7.787,17.493c1.813,6.258 2.72,12.764 2.72,19.52c0,6.898 -0.907,13.511 -2.72,19.84c-1.813,6.329 -4.409,12.267 -7.787,17.813c-3.377,5.547 -7.413,10.596 -12.106,15.147c-4.694,4.551 -9.938,8.462 -15.734,11.733c-5.795,3.271 -12.035,5.796 -18.72,7.574c-6.684,1.777 -13.689,2.666 -21.013,2.666Zm0,-7.04c8.107,0 15.271,-1.689 21.493,-5.066c6.223,-3.378 11.467,-8.089 15.734,-14.134c4.266,-6.044 7.484,-13.191 9.653,-21.44c2.169,-8.249 3.253,-17.28 3.253,-27.093c0,-9.742 -1.084,-18.667 -3.253,-26.773c-2.169,-8.107 -5.387,-15.094 -9.653,-20.96c-4.267,-5.867 -9.511,-10.418 -15.734,-13.654c-6.222,-3.235 -13.386,-4.853 -21.493,-4.853c-8.249,0 -15.484,1.618 -21.707,4.853c-6.222,3.236 -11.449,7.787 -15.68,13.654c-4.231,5.866 -7.413,12.853 -9.546,20.96c-2.134,8.106 -3.2,17.031 -3.2,26.773c0,9.813 1.066,18.844 3.2,27.093c2.133,8.249 5.315,15.396 9.546,21.44c4.231,6.045 9.458,10.756 15.68,14.134c6.223,3.377 13.458,5.066 21.707,5.066Z" style="fill-rule:nonzero;"/><path d="M1127.68,29.227l0,9.173l-51.2,0l0,132.267l-23.787,0l0,-132.267l-51.2,0l0,-9.173l126.187,0Z" style="fill-rule:nonzero;"/><path d="M1191.47,26.027l66.56,144.64l-24.214,0l-21.546,-47.147l-60.694,0l-22.293,47.147l-11.947,0l68.16,-144.64l5.974,0Zm-35.734,88.32l52.16,0l-25.706,-56l-26.454,56Z" style="fill-rule:nonzero;"/></svg>